Coordinates
version=1
nRows=26
nColumns=24
inDegrees=yes

Units are S.I. units (second, meters, Newtons, ...)
Angles are in degrees.

endheader
time	pelvis_tilt	pelvis_list	pelvis_rotation	pelvis_tx	pelvis_ty	pelvis_tz	hip_flexion_r	hip_adduction_r	hip_rotation_r	knee_angle_r	ankle_angle_r	subtalar_angle_r	mtp_angle_r	hip_flexion_l	hip_adduction_l	hip_rotation_l	knee_angle_l	ankle_angle_l	subtalar_angle_l	mtp_angle_l	lumbar_extension	lumbar_bending	lumbar_rotation
      1.58416667	     -0.44284165	      8.93278395	     -2.04211325	      0.47265076	      0.98601253	      0.29707781	     13.67261562	    -10.65960840	      1.59130270	    -68.15426922	      2.23648051	     -9.32037422	      3.79578455	     11.82162039	     14.53051512	     -1.11930234	    -14.98807461	      3.72200995	    -11.94861105	     -0.72071289	      2.92299128	     -6.91815101	      5.74608200
      1.58833333	     -0.34086288	      8.86972082	     -1.92591753	      0.47738743	      0.98679519	      0.29677496	     14.22838073	    -10.54482496	      1.63057219	    -68.09245231	      2.75220756	     -9.70568011	      3.53931328	     11.18864306	     14.53146274	     -0.84456280	    -14.62732134	      3.74007859	    -12.03186538	     -0.79358937	      2.76334189	     -6.86396564	      5.47455528
      1.59250000	     -0.29015430	      8.80313923	     -1.79480043	      0.48206672	      0.98744246	      0.29647596	     14.84009723	    -10.42323915	      1.66902540	    -68.00838615	      3.38116702	     -9.89469271	      3.45841951	     10.65405592	     14.51278505	     -0.64015086	    -14.35043902	      3.83219599	    -11.95567547	     -0.81461344	      2.64984257	     -6.80529485	      5.39233692
      1.59666667	     -0.17546140	      8.74676262	     -1.68007166	      0.48676963	      0.98816718	      0.29620802	     15.36692075	    -10.30895281	      1.72283270	    -67.86534323	      3.93169029	    -10.15460063	      3.25351913	     10.01959897	     14.50826764	     -0.39098568	    -14.00772439	      3.87780709	    -11.97963981	     -0.87026711	      2.46549602	     -6.77416396	      5.15985576
      1.60083333	     -0.12875958	      8.66423165	     -1.53964863	      0.49143856	      0.98876662	      0.29590835	     15.95442923	    -10.17053037	      1.75070298	    -67.67867140	      4.52091643	    -10.29377045	      3.17361411	      9.49405359	     14.46673543	     -0.18256831	    -13.74143268	      3.96541350	    -11.91143924	     -0.89060501	      2.36296156	     -6.67868864	      5.06527487
      1.60500000	     -0.06332633	      8.59529875	     -1.40431453	      0.49609827	      0.98935339	      0.29562479	     16.51462640	    -10.04494720	      1.78957712	    -67.45264397	      5.08684409	    -10.43408694	      3.09198970	      8.94365560	     14.43779136	      0.03759939	    -13.45920804	      4.04489177	    -11.86441041	     -0.91142339	      2.23551959	     -6.61599786	      4.92073200
      1.60916667	      0.03122552	      8.54908347	     -1.27520046	      0.50077137	      0.98993427	      0.29533765	     17.03382093	     -9.95048899	      1.83176420	    -67.18315131	      5.59156677	    -10.53162995	      2.86702046	      8.34040520	     14.43842417	      0.30905643	    -13.13025459	      4.08558720	    -11.93321603	     -0.97221679	      2.07935060	     -6.59467544	      4.61282378
      1.61333333	      0.10184473	      8.49384724	     -1.13682070	      0.50541856	      0.99046395	      0.29505879	     17.56731994	     -9.84369461	      1.87053400	    -66.87226664	      6.12864857	    -10.56462648	      2.65227237	      7.78515076	     14.42035228	      0.54630891	    -12.84519674	      4.15625163	    -11.92561940	     -1.03015946	      1.94785948	     -6.54673995	      4.44882294
      1.61750000	      0.15443538	      8.41792219	     -0.97461955	      0.51003936	      0.99094635	      0.29475763	     18.09866984	     -9.71711440	      1.88863466	    -66.50803644	      6.62342338	    -10.57577669	      2.35332653	      7.25633058	     14.37926575	      0.81303281	    -12.57656151	      4.20780285	    -11.92328371	     -1.11074117	      1.82875445	     -6.47700026	      4.21904257
      1.62166667	      0.19739921	      8.32917156	     -0.81984760	      0.51467012	      0.99138963	      0.29449198	     18.62673259	     -9.56959461	      1.91420030	    -66.09741970	      7.09915525	    -10.59764522	      2.30058728	      6.75967696	     14.31228212	      1.01025819	    -12.35270805	      4.33171605	    -11.84051984	     -1.12293823	      1.74016571	     -6.38454127	      4.16183328
      1.62583333	      0.26079845	      8.26106312	     -0.66880945	      0.51924881	      0.99180668	      0.29422766	     19.13138351	     -9.44697267	      1.94948893	    -65.66016902	      7.57790500	    -10.58223588	      2.23410348	      6.24517187	     14.26921092	      1.24271564	    -12.12743404	      4.42930529	    -11.79254497	     -1.14028650	      1.59366522	     -6.32618687	      4.00805363
      1.63000000	      0.32077030	      8.18988844	     -0.50661110	      0.52386473	      0.99221113	      0.29394494	     19.61611936	     -9.33165612	      1.96191291	    -65.16947670	      8.01200671	    -10.54509626	      2.16961656	      5.72430959	     14.22062020	      1.47634975	    -11.88477139	      4.52540999	    -11.76577002	     -1.15769288	      1.47943707	     -6.25586084	      3.82965891
      1.63416667	      0.40838110	      8.16007795	     -0.36104019	      0.52846158	      0.99259766	      0.29366260	     20.07165911	     -9.26518343	      1.99606833	    -64.65352861	      8.39059657	    -10.42867736	      2.01456407	      5.15779895	     14.22144539	      1.76783587	    -11.60079838	      4.57636834	    -11.84169473	     -1.20456524	      1.31604655	     -6.24318844	      3.50477743
      1.63833333	      0.43915602	      8.06858091	     -0.18410091	      0.53302385	      0.99291368	      0.29339655	     20.55663308	     -9.12203321	      2.00651478	    -64.07496464	      8.76461248	    -10.40734228	      1.95567094	      4.69811720	     14.14262538	      2.00175167	    -11.41488858	      4.68778681	    -11.79208371	     -1.22053746	      1.22466433	     -6.15591597	      3.40476726
      1.64250000	      0.53636941	      8.03118414	     -0.03709751	      0.53761415	      0.99327187	      0.29312750	     20.96939093	     -9.05013334	      2.03052626	    -63.47448929	      9.10586637	    -10.31627736	      1.82007217	      4.13179232	     14.12539483	      2.26860950	    -11.14962500	      4.76850487	    -11.82930361	     -1.26277025	      1.05100342	     -6.12370491	      3.11973063
      1.64666667	      0.53760577	      7.96248958	      0.13908623	      0.54216711	      0.99347474	      0.29285858	     21.46915034	     -8.94153655	      2.03726120	    -62.83529547	      9.41563506	    -10.29103012	      1.76856313	      3.70957048	     14.06556032	      2.49410296	    -10.96562419	      4.88394702	    -11.78984837	     -1.27721672	      0.99917632	     -6.04908886	      3.02212197
      1.65083333	      0.61686600	      7.91544957	      0.29882223	      0.54672687	      0.99375709	      0.29259702	     21.86711053	     -8.85889994	      2.05506519	    -62.15243508	      9.69340334	    -10.22013424	      1.62425998	      3.17966875	     14.03201579	      2.77615216	    -10.73405549	      4.97173188	    -11.83946763	     -1.32397270	      0.84351048	     -6.02061248	      2.71060682
      1.65500000	      0.64150537	      7.85202533	      0.47743329	      0.55125792	      0.99394827	      0.29233307	     22.30624630	     -8.75972262	      2.05915069	    -61.43152816	      9.95716379	    -10.20918394	      1.55510826	      2.74204554	     13.97328085	      3.01700842	    -10.56710590	      5.09471962	    -11.81210668	     -1.34476478	      0.76146417	     -5.96062794	      2.59517459
      1.65916667	      0.71013015	      7.78737505	      0.64569269	      0.55582043	      0.99419757	      0.29208776	     22.67542598	     -8.66239550	      2.05574687	    -60.66340627	     10.17991412	    -10.20860809	      1.47934145	      2.24166309	     13.90870243	      3.26254602	    -10.37146382	      5.21321712	    -11.79471517	     -1.36785445	      0.62354503	     -5.89427937	      2.40739597
      1.66333333	      0.76005965	      7.73810108	      0.81349274	      0.56036141	      0.99436990	      0.29183611	     23.05905987	     -8.58583158	      2.05474145	    -59.87457612	     10.37418906	    -10.22570842	      1.39749470	      1.76675149	     13.85955551	      3.51506055	    -10.18163170	      5.33379293	    -11.79219837	     -1.39257402	      0.50612490	     -5.84743248	      2.20221094
      1.66750000	      0.78732187	      7.70195699	      0.97653277	      0.56488850	      0.99447730	      0.29159341	     23.45927582	     -8.52188907	      2.06473816	    -59.06097351	     10.53211475	    -10.26175195	      1.30568831	      1.32168696	     13.82208682	      3.76546917	     -9.99814332	      5.45051322	    -11.80167503	     -1.42070399	      0.41645385	     -5.81571751	      1.99202028
      1.67166667	      0.85924803	      7.67115593	      1.12028621	      0.56943433	      0.99462904	      0.29137352	     23.79605358	     -8.46426443	      2.07571246	    -58.21443877	     10.65041065	    -10.34286317	      1.14336343	      0.81207309	     13.78660164	      4.01424167	     -9.77767228	      5.55140617	    -11.83481092	     -1.47300224	      0.26772826	     -5.79539655	      1.71218811
      1.67583333	      0.91252486	      7.62508848	      1.27891630	      0.57396733	      0.99475057	      0.29115372	     24.12752496	     -8.39310695	      2.07036707	    -57.32321828	     10.76403805	    -10.44234233	      0.97917788	      0.33851907	     13.72945662	      4.26124373	     -9.59230998	      5.67821068	    -11.83367849	     -1.52358512	      0.14750954	     -5.75186676	      1.51768062
      1.68000000	      0.95976555	      7.59582421	      1.43083119	      0.57848855	      0.99482054	      0.29093926	     24.45846386	     -8.34172073	      2.06997958	    -56.41566201	     10.86328253	    -10.56288864	      0.82204192	     -0.12235795	     13.68796567	      4.49759155	     -9.41611194	      5.80938956	    -11.82135811	     -1.57065140	      0.03292820	     -5.72481933	      1.33321562
      1.68416667	      0.99761991	      7.56352580	      1.58197616	      0.58301389	      0.99486843	      0.29073581	     24.78128043	     -8.28868077	      2.06265518	    -55.47423705	     10.93833918	    -10.71627282	      0.66151440	     -0.57180577	     13.63949187	      4.73115915	     -9.24146194	      5.93853183	    -11.80875851	     -1.61746737	     -0.07374725	     -5.69643100	      1.14896060
      1.68833333	      0.99740858	      7.53644669	      1.74543069	      0.58752214	      0.99481756	      0.29050761	     25.13477779	     -8.25415066	      2.03688581	    -54.51736076	     11.02029282	    -10.83938111	      0.56878332	     -0.96188427	     13.59553379	      4.95912834	     -9.10600902	      6.08704981	    -11.77038894	     -1.64117328	     -0.13174731	     -5.66432552	      1.03494514
